<?xml version="1.0" encoding="UTF-8" standalone="no"?>
<svg
   xmlns:dc="http://purl.org/dc/elements/1.1/"
   xmlns:cc="http://creativecommons.org/ns#"
   xmlns:rdf="http://www.w3.org/1999/02/22-rdf-syntax-ns#"
   xmlns:svg="http://www.w3.org/2000/svg"
   xmlns="http://www.w3.org/2000/svg"
   viewBox="0 0 243.21586 114.92281"
   height="114.92281"
   width="243.21587"
   xml:space="preserve"
   id="svg4485"
   version="1.1"><metadata
     id="metadata4491"><rdf:RDF><cc:Work
         rdf:about=""><dc:format>image/svg+xml</dc:format><dc:type
           rdf:resource="http://purl.org/dc/dcmitype/StillImage" /><dc:title></dc:title></cc:Work></rdf:RDF></metadata><defs
     id="defs4489" /><g
     transform="matrix(1.3333333,0,0,-1.3333333,-34.228799,164.58472)"
     id="g4493"><g
       id="text4497"
       style="font-variant:normal;font-weight:normal;font-stretch:normal;font-size:64.55780029px;font-family:Haettenschweiler;-inkscape-font-specification:Haettenschweiler;writing-mode:lr-tb;fill:#231f20;fill-opacity:1;fill-rule:nonzero;stroke:none"
       transform="scale(1,-1)"
       aria-label="source"><path
         id="path4542"
         transform="matrix(0.75000002,0,0,0.75000002,25.6716,-123.43854)"
         d="M 49.251953 0 C 39.949354 0 35.298828 3.4320041 35.298828 10.296875 L 35.298828 16.853516 C 35.298828 19.459364 35.943508 21.421348 37.232422 22.738281 C 38.521337 24.027197 42.288677 26.311524 48.537109 29.589844 C 50.190282 30.794701 51.017578 33.455297 51.017578 37.574219 C 51.017578 40.740465 50.344954 42.324219 49 42.324219 C 47.655046 42.324219 46.982422 41.496922 46.982422 39.84375 L 46.982422 29.505859 L 35.046875 29.505859 L 35.046875 39.927734 C 35.046875 46.512405 39.669456 49.804688 48.916016 49.804688 C 58.358715 49.804688 63.080078 46.372683 63.080078 39.507812 L 63.080078 32.195312 C 63.080078 28.916984 61.69389 26.282373 58.919922 24.292969 C 52.25119 21.01464 48.58068 18.702373 47.908203 17.357422 C 47.263745 16.012462 46.941406 14.024492 46.941406 11.390625 C 46.941406 8.8408117 47.682915 7.5644531 49.167969 7.5644531 C 50.653023 7.5644531 51.396484 9.5972675 51.396484 13.660156 L 51.142578 19.501953 L 62.828125 19.501953 L 62.828125 9.8769531 C 62.828125 3.2922866 58.302374 0 49.251953 0 z M 79.554688 0 C 70.055949 0 65.306641 3.4320041 65.306641 10.296875 L 65.306641 39.507812 C 65.306641 46.372683 70.055949 49.804687 79.554688 49.804688 C 88.801247 49.804688 93.425781 46.512405 93.425781 39.927734 L 93.425781 9.8769531 C 93.425781 6.4865532 92.024644 3.9936221 89.222656 2.3964844 C 86.448688 0.79935553 83.225292 0 79.554688 0 z M 146.17188 0 C 142.83751 0 140.37252 0.65767607 138.77539 1.9746094 L 138.77539 0.3359375 L 126.79688 0.3359375 L 126.79688 49.132812 L 138.77539 49.132812 L 138.77539 9.8769531 C 138.77539 8.4479398 139.46102 7.734375 140.83398 7.734375 C 142.20696 7.734375 142.89453 8.4758798 142.89453 9.9609375 L 142.89453 20.552734 L 154.87305 20.552734 L 154.87305 6.9355469 C 154.87305 4.8620714 154.0178 3.1944826 152.30859 1.9335938 C 150.59938 0.64467823 148.55357 0 146.17188 0 z M 171.30859 0 C 161.83787 0 157.10352 3.4320041 157.10352 10.296875 L 157.10352 39.507812 C 157.10352 46.372683 161.83787 49.804688 171.30859 49.804688 C 180.52714 49.804688 185.13672 46.512405 185.13672 39.927734 L 185.13672 28.033203 L 173.20117 28.033203 L 173.20117 39.84375 C 173.20117 41.496922 172.5136 42.324219 171.14062 42.324219 C 169.73963 42.324219 169.03906 41.496922 169.03906 39.84375 L 169.03906 9.9609375 C 169.03906 8.3637998 169.73963 7.5644531 171.14062 7.5644531 C 172.5136 7.5644531 173.20117 8.3637998 173.20117 9.9609375 L 173.20117 21.939453 L 185.13672 21.939453 L 185.13672 9.8769531 C 185.13672 3.2922866 180.52714 9.1380605e-17 171.30859 0 z M 201.74219 0 C 192.43958 0 187.78906 3.4320041 187.78906 10.296875 L 187.78906 39.507812 C 187.78906 46.372683 192.43958 49.804687 201.74219 49.804688 C 211.12885 49.804688 215.82227 46.512405 215.82227 39.927734 L 215.82227 30.009766 L 203.88672 30.009766 L 203.88672 39.84375 C 203.88672 41.496922 203.19915 42.324219 201.82617 42.324219 C 200.42518 42.324219 199.72461 41.496922 199.72461 39.84375 L 199.72461 28.455078 L 215.82227 28.455078 L 215.82227 9.8769531 C 215.82227 3.2922866 211.12885 0 201.74219 0 z M 95.816406 0.3359375 L 95.816406 43.039062 C 95.816406 45.056494 96.671647 46.694184 98.380859 47.955078 C 100.11809 49.187953 102.16391 49.804687 104.51758 49.804688 C 107.90799 49.804688 110.37297 49.035234 111.91406 47.494141 L 111.91406 49.132812 L 123.84961 49.132812 L 123.84961 0.3359375 L 111.91406 0.3359375 L 111.91406 40.095703 C 111.91406 41.524717 111.22649 42.240234 109.85352 42.240234 C 108.45252 42.240234 107.75391 41.496773 107.75391 40.011719 L 107.75391 0.3359375 L 95.816406 0.3359375 z M 79.386719 7.5644531 C 80.759693 7.5644531 81.447266 8.3637998 81.447266 9.9609375 L 81.447266 39.84375 C 81.447266 41.496922 80.759693 42.324219 79.386719 42.324219 C 77.985725 42.324219 77.285156 41.496922 77.285156 39.84375 L 77.285156 9.9609375 C 77.285156 8.3637998 77.985725 7.5644531 79.386719 7.5644531 z M 201.82617 7.5644531 C 203.19915 7.5644531 203.88672 8.3637998 203.88672 9.9609375 L 203.88672 21.140625 L 199.72461 21.140625 L 199.72461 9.9609375 C 199.72461 8.3637998 200.42518 7.5644531 201.82617 7.5644531 z "
         style="stroke-width:1.33333325" /></g><g
       id="text4509"
       style="font-variant:normal;font-weight:normal;font-stretch:normal;font-size:53.7981987px;font-family:Haettenschweiler;-inkscape-font-specification:Haettenschweiler;writing-mode:lr-tb;fill:#231f20;fill-opacity:1;fill-rule:nonzero;stroke:none"
       transform="scale(1,-1)"
       aria-label="BOTS"><path
         id="path4532"
         transform="matrix(0.75000002,0,0,0.75000002,25.6716,-123.43854)"
         d="M 152.67773 57.988281 C 144.22507 57.988281 139.99805 61.247093 139.99805 67.761719 L 139.99805 100.08984 C 139.99805 106.11412 144.20146 109.125 152.60742 109.125 C 156.34341 109.125 159.3661 108.34374 161.67773 106.7793 C 164.01273 105.1915 165.18164 102.93827 165.18164 100.01953 L 165.18164 67.691406 C 165.18164 61.22348 161.01365 57.988281 152.67773 57.988281 z M 205.32422 57.988281 C 196.82486 57.988281 192.57422 61.247093 192.57422 67.761719 L 192.57422 73.400391 C 192.57422 75.268383 193.14687 76.984384 194.29102 78.548828 C 195.43516 80.113272 198.35354 83.171377 203.04688 87.724609 C 205.47527 90.176351 206.68945 92.313472 206.68945 94.134766 L 206.68945 100.08984 C 206.68945 101.23399 206.0243 101.80469 204.69336 101.80469 C 203.31571 101.80469 202.62695 101.23399 202.62695 100.08984 L 202.62695 88.566406 L 192.57422 88.566406 L 192.57422 100.01953 C 192.57422 106.09051 196.68513 109.125 204.9043 109.125 C 213.42702 109.125 217.6875 105.7855 217.6875 99.107422 L 217.6875 92.699219 C 217.6875 90.480977 217.05777 88.495384 215.79688 86.744141 C 214.55933 84.992897 211.64094 81.91118 207.04102 77.498047 C 204.56592 75.022956 203.32813 72.850415 203.32812 70.982422 L 203.11719 67.726562 C 203.11719 65.78852 203.75872 64.818359 205.04297 64.818359 C 206.14041 64.818359 206.68945 65.320173 206.68945 66.324219 L 206.68945 75.572266 L 216.74219 75.572266 L 216.74219 66.884766 C 216.74219 60.953888 212.9363 57.988281 205.32422 57.988281 z M 112.84766 58.445312 L 112.84766 108.66992 L 126.75195 108.66992 C 129.74074 108.66992 132.30884 107.85324 134.45703 106.21875 C 136.62857 104.56091 137.71484 102.0735 137.71484 98.757812 L 137.71484 89.021484 C 137.71484 85.308848 135.44981 82.89228 130.91992 81.771484 C 135.2163 80.323789 137.36523 77.836383 137.36523 74.310547 L 137.36523 67.339844 C 137.36523 64.234305 136.21993 61.981073 133.93164 60.580078 C 131.64335 59.155734 128.94733 58.445312 125.8418 58.445312 L 112.84766 58.445312 z M 167.1543 58.445312 L 167.1543 64.994141 L 173.31836 64.994141 L 173.31836 108.66992 L 184.35156 108.66992 L 184.35156 64.994141 L 190.51562 64.994141 L 190.51562 58.445312 L 167.1543 58.445312 z M 152.60742 64.888672 C 153.79827 64.888672 154.39258 65.390485 154.39258 66.394531 L 154.39258 100.61523 C 154.39258 101.61928 153.79827 102.12109 152.60742 102.12109 C 151.36988 102.12109 150.75 101.61928 150.75 100.61523 L 150.75 66.394531 C 150.75 65.390485 151.36988 64.888672 152.60742 64.888672 z M 123.87891 64.923828 C 125.93371 64.923828 126.96289 65.799538 126.96289 67.550781 L 126.96289 76.097656 C 126.96289 77.87225 125.93371 78.759766 123.87891 78.759766 L 123.87891 64.923828 z M 123.87891 84.222656 C 125.93371 84.222656 126.96289 85.098366 126.96289 86.849609 L 126.96289 99.564453 C 126.96289 101.33905 125.93371 102.22461 123.87891 102.22461 L 123.87891 84.222656 z "
         style="stroke-width:1.33333325" /></g><g
       transform="translate(76.6233,56.9097)"
       id="g4511"><path
         id="path4513"
         style="fill:#231f20;fill-opacity:1;fill-rule:nonzero;stroke:none"
         d="M 0,0 H 30.485 Z" /></g><g
       id="g4770"><path
         id="path4501"
         style="fill:none;stroke:#393536;stroke-width:4;stroke-linecap:square;stroke-linejoin:miter;stroke-miterlimit:10;stroke-dasharray:none;stroke-opacity:1"
         d="M 45.4526,105.687 H 27.6716 V 56.46 h 29.051 l -0.005,14.706 11.841,-14.706 -11.841,-13.807 0.005,13.807" /><g
         id="g4503"
         transform="translate(75.0088,73.1387)"><path
           d="M 0,0 V -32.458"
           style="fill:none;stroke:#393536;stroke-width:4;stroke-linecap:square;stroke-linejoin:miter;stroke-miterlimit:10;stroke-dasharray:none;stroke-opacity:1"
           id="path4505" /></g><g
         id="g4515"
         transform="translate(76.623,56.9097)"><path
           d="M 0,0 H 30.485"
           style="fill:none;stroke:#393536;stroke-width:4;stroke-linecap:butt;stroke-linejoin:miter;stroke-miterlimit:10;stroke-dasharray:none;stroke-opacity:1"
           id="path4517" /></g></g><g
       id="g4782"><g
         id="g4519"
         transform="translate(192.1094,56.9097)"><path
           d="M 0,0 H 11.297 V 9.953"
           style="fill:none;stroke:#393536;stroke-width:4;stroke-linecap:butt;stroke-linejoin:miter;stroke-miterlimit:10;stroke-dasharray:none;stroke-opacity:1"
           id="path4521" /></g><g
         id="g4531"
         transform="translate(206.9937,69.4629)"><path
           d="m 0,0 c 0,-2.03 -1.646,-3.676 -3.677,-3.676 -2.03,0 -3.676,1.646 -3.676,3.676 0,2.03 1.646,3.676 3.676,3.676 C -1.646,3.676 0,2.03 0,0 Z"
           style="fill:none;stroke:#393536;stroke-width:2;stroke-linecap:butt;stroke-linejoin:miter;stroke-miterlimit:10;stroke-dasharray:none;stroke-opacity:1"
           id="path4533" /></g><g
         id="g4535"
         transform="translate(192.1992,105.687)"><path
           d="M 0,0 H 11.297 V -10.126"
           style="fill:none;stroke:#393536;stroke-width:4;stroke-linecap:butt;stroke-linejoin:miter;stroke-miterlimit:10;stroke-dasharray:none;stroke-opacity:1"
           id="path4537" /></g><g
         id="g4539"
         transform="translate(207.0835,92.3989)"><path
           d="m 0,0 c 0,2.119 -1.646,3.836 -3.677,3.836 -2.03,0 -3.676,-1.717 -3.676,-3.836 0,-2.119 1.646,-3.837 3.676,-3.837 C -1.646,-3.837 0,-2.119 0,0 Z"
           style="fill:none;stroke:#393536;stroke-width:2;stroke-linecap:butt;stroke-linejoin:miter;stroke-miterlimit:10;stroke-dasharray:none;stroke-opacity:1"
           id="path4541" /></g><g
         id="g4543"
         transform="translate(194.7993,89.8164)"><path
           d="M 0,0 6.838,-17.086"
           style="fill:none;stroke:#393536;stroke-width:2;stroke-linecap:butt;stroke-linejoin:miter;stroke-miterlimit:10;stroke-dasharray:none;stroke-opacity:1"
           id="path4545" /></g></g></g></svg>